grf
version=1
nRows=7
nColumns=37
inDegrees=no
endheader
time	ground_force_1_vx	ground_force_1_vy	ground_force_1_vz	ground_force_1_px	ground_force_1_py	ground_force_1_pz	ground_moment_1_mx	ground_moment_1_my	ground_moment_1_mz	ground_force_2_vx	ground_force_2_vy	ground_force_2_vz	ground_force_2_px	ground_force_2_py	ground_force_2_pz	ground_moment_2_mx	ground_moment_2_my	ground_moment_2_mz	ground_force_3_vx	ground_force_3_vy	ground_force_3_vz	ground_force_3_px	ground_force_3_py	ground_force_3_pz	ground_moment_3_mx	ground_moment_3_my	ground_moment_3_mz	ground_force_4_vx	ground_force_4_vy	ground_force_4_vz	ground_force_4_px	ground_force_4_py	ground_force_4_pz	ground_moment_4_mx	ground_moment_4_my	ground_moment_4_mz
      0.00000000	      0.00000000	     -0.00000000	      0.00000000	      0.00000000	      0.00000000	      0.00000000	      0.00000000	      0.00000000	      0.00000000	      5.03063631	     82.14759827	   -542.91485596	   -336.81092716	  -1182.16634981	      0.00000000	      0.00000000	      0.00000000	   1792.70549445	     11.90898795	    -76.87320813	   -458.74578857	   -360.33598813	   -634.64620617	      0.00000000	      0.00000000	     -0.00000000	  -1430.90284002	      0.00000000	     -0.00000000	      0.00000000	      0.00000000	      0.00000000	      0.00000000	      0.00000000	      0.00000000	      0.00000000
      0.01000000	      0.00000000	     -0.00000000	      0.00000000	      0.00000000	      0.00000000	      0.00000000	      0.00000000	      0.00000000	      0.00000000	      3.96023488	     82.87913513	   -545.40020752	   -335.73637254	  -1182.05992287	      0.00000000	      0.00000000	      0.00000000	   1692.16234762	     10.67889217	    -76.01151369	   -455.16143799	   -357.84734850	   -634.17515279	      0.00000000	      0.00000000	     -0.00000000	  -1318.29691981	      0.00000000	     -0.00000000	      0.00000000	      0.00000000	      0.00000000	      0.00000000	      0.00000000	      0.00000000	      0.00000000
      0.02000000	      0.00000000	     -0.00000000	      0.00000000	      0.00000000	      0.00000000	      0.00000000	      0.00000000	      0.00000000	      0.00000000	      2.55201674	     84.31736755	   -547.56787109	   -335.03973805	  -1182.08115700	      0.00000000	      0.00000000	     -0.00000000	   1604.96967627	      9.62692554	    -75.54861534	   -451.02020264	   -355.69070319	   -633.60698314	      0.00000000	      0.00000000	     -0.00000000	  -1289.07519482	      0.00000000	     -0.00000000	      0.00000000	      0.00000000	      0.00000000	      0.00000000	      0.00000000	      0.00000000	      0.00000000
      0.03000000	      0.00000000	     -0.00000000	      0.00000000	      0.00000000	      0.00000000	      0.00000000	      0.00000000	      0.00000000	      0.00000000	      2.51674175	     85.74345398	   -550.82141113	   -333.35152911	  -1182.11703779	      0.00000000	      0.00000000	      0.00000000	   1540.78627562	      8.38097868	    -75.31305768	   -446.78100586	   -353.49325623	   -633.15278478	      0.00000000	      0.00000000	     -0.00000000	  -1149.91605688	      0.00000000	     -0.00000000	      0.00000000	      0.00000000	      0.00000000	      0.00000000	      0.00000000	      0.00000000	      0.00000000
      0.04000000	      0.00000000	     -0.00000000	      0.00000000	      0.00000000	      0.00000000	      0.00000000	      0.00000000	      0.00000000	      0.00000000	      1.33815765	     87.18619537	   -554.00726318	   -332.51637269	  -1182.66281449	      0.00000000	      0.00000000	      0.00000000	   1362.79862055	      7.34213222	    -74.91755740	   -444.12084961	   -352.32298334	   -633.15560866	      0.00000000	      0.00000000	     -0.00000000	  -1114.15987339	      0.00000000	     -0.00000000	      0.00000000	      0.00000000	      0.00000000	      0.00000000	      0.00000000	      0.00000000	      0.00000000
      0.05000000	      0.00000000	     -0.00000000	      0.00000000	      0.00000000	      0.00000000	      0.00000000	      0.00000000	      0.00000000	      0.00000000	      0.96163875	     88.55892181	   -556.96472168	   -331.87227787	  -1183.19500751	      0.00000000	      0.00000000	      0.00000000	   1225.50069682	      6.40061393	    -74.72015437	   -439.74414062	   -350.83758134	   -632.94778569	      0.00000000	      0.00000000	     -0.00000000	   -926.91455301	      0.00000000	     -0.00000000	      0.00000000	      0.00000000	      0.00000000	      0.00000000	      0.00000000	      0.00000000	      0.00000000
      0.06000000	      0.00000000	     -0.00000000	      0.00000000	      0.00000000	      0.00000000	      0.00000000	      0.00000000	      0.00000000	      0.00000000	      0.44678962	     90.73548889	   -560.21520996	   -330.60079930	  -1183.38853477	      0.00000000	     -0.00000000	      0.00000000	   1118.06991805	      5.51384846	    -74.59124804	   -434.96273804	   -349.65055133	   -632.49508215	      0.00000000	      0.00000000	     -0.00000000	   -768.02977627	      0.00000000	     -0.00000000	      0.00000000	      0.00000000	      0.00000000	      0.00000000	      0.00000000	      0.00000000	      0.00000000
